<mxfile host="app.diagrams.net" modified="2022-04-11T21:44:46.558Z" agent="5.0 (X11)" etag="ksn5iKJjJ_FzziCseVr-" version="17.4.2" type="github">
  <diagram id="jyOg7DbZCNSoTP-vZqJg" name="Page-1">
    <mxGraphModel dx="832" dy="452" grid="1" gridSize="10" guides="1" tooltips="1" connect="1" arrows="1" fold="1" page="1" pageScale="1" pageWidth="650" pageHeight="400" math="0" shadow="0">
      <root>
        <mxCell id="0" />
        <mxCell id="1" parent="0" />
        <mxCell id="MnWBI0cI_bQ1-DApejmr-47" value="" style="group" vertex="1" connectable="0" parent="1">
          <mxGeometry x="520" y="230" width="120" height="170" as="geometry" />
        </mxCell>
        <mxCell id="MnWBI0cI_bQ1-DApejmr-48" value="" style="whiteSpace=wrap;html=1;fillColor=#FF66B3;fontColor=#ffffff;strokeColor=#A50040;rounded=1;" vertex="1" parent="MnWBI0cI_bQ1-DApejmr-47">
          <mxGeometry width="120" height="170" as="geometry" />
        </mxCell>
        <mxCell id="MnWBI0cI_bQ1-DApejmr-49" value="SCC 3" style="text;html=1;align=center;verticalAlign=middle;resizable=0;points=[];autosize=1;strokeColor=none;fillColor=none;fontColor=#FFFFFF;fontStyle=1" vertex="1" parent="MnWBI0cI_bQ1-DApejmr-47">
          <mxGeometry x="30" y="150" width="60" height="20" as="geometry" />
        </mxCell>
        <mxCell id="MnWBI0cI_bQ1-DApejmr-46" value="" style="group" vertex="1" connectable="0" parent="1">
          <mxGeometry x="370" y="230" width="120" height="170" as="geometry" />
        </mxCell>
        <mxCell id="MnWBI0cI_bQ1-DApejmr-41" value="" style="whiteSpace=wrap;html=1;fillColor=#FF66B3;fontColor=#ffffff;strokeColor=#A50040;rounded=1;" vertex="1" parent="MnWBI0cI_bQ1-DApejmr-46">
          <mxGeometry width="120" height="170" as="geometry" />
        </mxCell>
        <mxCell id="MnWBI0cI_bQ1-DApejmr-42" value="SCC 2" style="text;html=1;align=center;verticalAlign=middle;resizable=0;points=[];autosize=1;strokeColor=none;fillColor=none;fontColor=#FFFFFF;fontStyle=1" vertex="1" parent="MnWBI0cI_bQ1-DApejmr-46">
          <mxGeometry x="30" y="150" width="60" height="20" as="geometry" />
        </mxCell>
        <mxCell id="MnWBI0cI_bQ1-DApejmr-39" value="" style="whiteSpace=wrap;html=1;aspect=fixed;fillColor=#FF66B3;fontColor=#ffffff;strokeColor=#A50040;rounded=1;" vertex="1" parent="1">
          <mxGeometry x="150" y="230" width="180" height="180" as="geometry" />
        </mxCell>
        <mxCell id="MnWBI0cI_bQ1-DApejmr-13" style="edgeStyle=none;rounded=0;orthogonalLoop=1;jettySize=auto;html=1;exitX=0.5;exitY=0;exitDx=0;exitDy=0;entryX=0.5;entryY=1;entryDx=0;entryDy=0;fillColor=#6a00ff;strokeColor=#3700CC;" edge="1" parent="1" source="MnWBI0cI_bQ1-DApejmr-1" target="MnWBI0cI_bQ1-DApejmr-2">
          <mxGeometry relative="1" as="geometry" />
        </mxCell>
        <mxCell id="MnWBI0cI_bQ1-DApejmr-1" value="1" style="ellipse;whiteSpace=wrap;html=1;aspect=fixed;fillColor=#6a00ff;fontColor=#ffffff;strokeColor=#3700CC;fontStyle=1" vertex="1" parent="1">
          <mxGeometry x="160" y="160" width="40" height="40" as="geometry" />
        </mxCell>
        <mxCell id="MnWBI0cI_bQ1-DApejmr-14" style="edgeStyle=none;rounded=0;orthogonalLoop=1;jettySize=auto;html=1;exitX=0.5;exitY=1;exitDx=0;exitDy=0;entryX=0.35;entryY=0;entryDx=0;entryDy=0;entryPerimeter=0;fillColor=#6a00ff;strokeColor=#3700CC;" edge="1" parent="1" source="MnWBI0cI_bQ1-DApejmr-2" target="MnWBI0cI_bQ1-DApejmr-3">
          <mxGeometry relative="1" as="geometry" />
        </mxCell>
        <mxCell id="MnWBI0cI_bQ1-DApejmr-2" value="2" style="ellipse;whiteSpace=wrap;html=1;aspect=fixed;fillColor=#6a00ff;fontColor=#ffffff;strokeColor=#3700CC;fontStyle=1" vertex="1" parent="1">
          <mxGeometry x="220" y="70" width="40" height="40" as="geometry" />
        </mxCell>
        <mxCell id="MnWBI0cI_bQ1-DApejmr-15" style="edgeStyle=none;rounded=0;orthogonalLoop=1;jettySize=auto;html=1;exitX=0;exitY=0.5;exitDx=0;exitDy=0;entryX=1;entryY=0.5;entryDx=0;entryDy=0;fillColor=#6a00ff;strokeColor=#3700CC;" edge="1" parent="1" source="MnWBI0cI_bQ1-DApejmr-3" target="MnWBI0cI_bQ1-DApejmr-1">
          <mxGeometry relative="1" as="geometry" />
        </mxCell>
        <mxCell id="MnWBI0cI_bQ1-DApejmr-16" style="edgeStyle=none;rounded=0;orthogonalLoop=1;jettySize=auto;html=1;exitX=1;exitY=0.5;exitDx=0;exitDy=0;entryX=0;entryY=0.5;entryDx=0;entryDy=0;fillColor=#6a00ff;strokeColor=#3700CC;" edge="1" parent="1" source="MnWBI0cI_bQ1-DApejmr-3" target="MnWBI0cI_bQ1-DApejmr-4">
          <mxGeometry relative="1" as="geometry" />
        </mxCell>
        <mxCell id="MnWBI0cI_bQ1-DApejmr-3" value="3" style="ellipse;whiteSpace=wrap;html=1;aspect=fixed;fillColor=#6a00ff;fontColor=#ffffff;strokeColor=#3700CC;fontStyle=1" vertex="1" parent="1">
          <mxGeometry x="280" y="160" width="40" height="40" as="geometry" />
        </mxCell>
        <mxCell id="MnWBI0cI_bQ1-DApejmr-17" style="edgeStyle=orthogonalEdgeStyle;rounded=0;orthogonalLoop=1;jettySize=auto;html=1;exitX=0.5;exitY=0;exitDx=0;exitDy=0;entryX=0.5;entryY=1;entryDx=0;entryDy=0;curved=1;fillColor=#6a00ff;strokeColor=#3700CC;" edge="1" parent="1" source="MnWBI0cI_bQ1-DApejmr-4" target="MnWBI0cI_bQ1-DApejmr-5">
          <mxGeometry relative="1" as="geometry">
            <Array as="points">
              <mxPoint x="400" y="160" />
              <mxPoint x="400" y="120" />
              <mxPoint x="420" y="120" />
            </Array>
          </mxGeometry>
        </mxCell>
        <mxCell id="MnWBI0cI_bQ1-DApejmr-4" value="4" style="ellipse;whiteSpace=wrap;html=1;aspect=fixed;fillColor=#6a00ff;fontColor=#ffffff;strokeColor=#3700CC;fontStyle=1" vertex="1" parent="1">
          <mxGeometry x="400" y="160" width="40" height="40" as="geometry" />
        </mxCell>
        <mxCell id="MnWBI0cI_bQ1-DApejmr-20" style="edgeStyle=orthogonalEdgeStyle;curved=1;rounded=0;orthogonalLoop=1;jettySize=auto;html=1;exitX=0.5;exitY=1;exitDx=0;exitDy=0;entryX=0.5;entryY=0;entryDx=0;entryDy=0;fillColor=#6a00ff;strokeColor=#3700CC;" edge="1" parent="1" source="MnWBI0cI_bQ1-DApejmr-5" target="MnWBI0cI_bQ1-DApejmr-4">
          <mxGeometry relative="1" as="geometry">
            <Array as="points">
              <mxPoint x="430" y="110" />
              <mxPoint x="430" y="140" />
              <mxPoint x="420" y="140" />
            </Array>
          </mxGeometry>
        </mxCell>
        <mxCell id="MnWBI0cI_bQ1-DApejmr-22" style="edgeStyle=none;rounded=0;orthogonalLoop=1;jettySize=auto;html=1;exitX=1;exitY=0.5;exitDx=0;exitDy=0;entryX=0;entryY=0.5;entryDx=0;entryDy=0;fillColor=#6a00ff;strokeColor=#3700CC;" edge="1" parent="1" source="MnWBI0cI_bQ1-DApejmr-5" target="MnWBI0cI_bQ1-DApejmr-7">
          <mxGeometry relative="1" as="geometry" />
        </mxCell>
        <mxCell id="MnWBI0cI_bQ1-DApejmr-5" value="5" style="ellipse;whiteSpace=wrap;html=1;aspect=fixed;fillColor=#6a00ff;fontColor=#ffffff;strokeColor=#3700CC;fontStyle=1" vertex="1" parent="1">
          <mxGeometry x="400" y="70" width="40" height="40" as="geometry" />
        </mxCell>
        <mxCell id="MnWBI0cI_bQ1-DApejmr-6" value="7" style="ellipse;whiteSpace=wrap;html=1;aspect=fixed;fillColor=#6a00ff;fontColor=#ffffff;strokeColor=#3700CC;fontStyle=1" vertex="1" parent="1">
          <mxGeometry x="550" y="160" width="40" height="40" as="geometry" />
        </mxCell>
        <mxCell id="MnWBI0cI_bQ1-DApejmr-23" style="edgeStyle=none;rounded=0;orthogonalLoop=1;jettySize=auto;html=1;exitX=0.5;exitY=1;exitDx=0;exitDy=0;entryX=0.5;entryY=0;entryDx=0;entryDy=0;fillColor=#6a00ff;strokeColor=#3700CC;" edge="1" parent="1" source="MnWBI0cI_bQ1-DApejmr-7" target="MnWBI0cI_bQ1-DApejmr-6">
          <mxGeometry relative="1" as="geometry" />
        </mxCell>
        <mxCell id="MnWBI0cI_bQ1-DApejmr-7" value="6" style="ellipse;whiteSpace=wrap;html=1;aspect=fixed;fillColor=#6a00ff;fontColor=#ffffff;strokeColor=#3700CC;fontStyle=1" vertex="1" parent="1">
          <mxGeometry x="550" y="70" width="40" height="40" as="geometry" />
        </mxCell>
        <mxCell id="MnWBI0cI_bQ1-DApejmr-24" style="edgeStyle=none;rounded=0;orthogonalLoop=1;jettySize=auto;html=1;exitX=0.5;exitY=0;exitDx=0;exitDy=0;entryX=0.5;entryY=1;entryDx=0;entryDy=0;fillColor=#6a00ff;strokeColor=#3700CC;" edge="1" source="MnWBI0cI_bQ1-DApejmr-25" target="MnWBI0cI_bQ1-DApejmr-27" parent="1">
          <mxGeometry relative="1" as="geometry" />
        </mxCell>
        <mxCell id="MnWBI0cI_bQ1-DApejmr-25" value="1" style="ellipse;whiteSpace=wrap;html=1;aspect=fixed;fillColor=#6a00ff;fontColor=#ffffff;strokeColor=#3700CC;fontStyle=1" vertex="1" parent="1">
          <mxGeometry x="160" y="320" width="40" height="40" as="geometry" />
        </mxCell>
        <mxCell id="MnWBI0cI_bQ1-DApejmr-26" style="edgeStyle=none;rounded=0;orthogonalLoop=1;jettySize=auto;html=1;exitX=0.5;exitY=1;exitDx=0;exitDy=0;entryX=0.35;entryY=0;entryDx=0;entryDy=0;entryPerimeter=0;fillColor=#6a00ff;strokeColor=#3700CC;" edge="1" source="MnWBI0cI_bQ1-DApejmr-27" target="MnWBI0cI_bQ1-DApejmr-30" parent="1">
          <mxGeometry relative="1" as="geometry" />
        </mxCell>
        <mxCell id="MnWBI0cI_bQ1-DApejmr-27" value="2" style="ellipse;whiteSpace=wrap;html=1;aspect=fixed;fillColor=#6a00ff;fontColor=#ffffff;strokeColor=#3700CC;fontStyle=1" vertex="1" parent="1">
          <mxGeometry x="220" y="230" width="40" height="40" as="geometry" />
        </mxCell>
        <mxCell id="MnWBI0cI_bQ1-DApejmr-28" style="edgeStyle=none;rounded=0;orthogonalLoop=1;jettySize=auto;html=1;exitX=0;exitY=0.5;exitDx=0;exitDy=0;entryX=1;entryY=0.5;entryDx=0;entryDy=0;fillColor=#6a00ff;strokeColor=#3700CC;" edge="1" source="MnWBI0cI_bQ1-DApejmr-30" target="MnWBI0cI_bQ1-DApejmr-25" parent="1">
          <mxGeometry relative="1" as="geometry" />
        </mxCell>
        <mxCell id="MnWBI0cI_bQ1-DApejmr-29" style="edgeStyle=none;rounded=0;orthogonalLoop=1;jettySize=auto;html=1;exitX=1;exitY=0.5;exitDx=0;exitDy=0;entryX=0;entryY=0.5;entryDx=0;entryDy=0;fillColor=#6a00ff;strokeColor=#3700CC;" edge="1" source="MnWBI0cI_bQ1-DApejmr-30" target="MnWBI0cI_bQ1-DApejmr-32" parent="1">
          <mxGeometry relative="1" as="geometry" />
        </mxCell>
        <mxCell id="MnWBI0cI_bQ1-DApejmr-30" value="3" style="ellipse;whiteSpace=wrap;html=1;aspect=fixed;fillColor=#6a00ff;fontColor=#ffffff;strokeColor=#3700CC;fontStyle=1" vertex="1" parent="1">
          <mxGeometry x="280" y="320" width="40" height="40" as="geometry" />
        </mxCell>
        <mxCell id="MnWBI0cI_bQ1-DApejmr-31" style="edgeStyle=orthogonalEdgeStyle;rounded=0;orthogonalLoop=1;jettySize=auto;html=1;exitX=0.5;exitY=0;exitDx=0;exitDy=0;entryX=0.5;entryY=1;entryDx=0;entryDy=0;curved=1;fillColor=#6a00ff;strokeColor=#3700CC;" edge="1" source="MnWBI0cI_bQ1-DApejmr-32" target="MnWBI0cI_bQ1-DApejmr-35" parent="1">
          <mxGeometry relative="1" as="geometry">
            <Array as="points">
              <mxPoint x="410" y="320" />
              <mxPoint x="410" y="280" />
              <mxPoint x="430" y="280" />
            </Array>
          </mxGeometry>
        </mxCell>
        <mxCell id="MnWBI0cI_bQ1-DApejmr-32" value="4" style="ellipse;whiteSpace=wrap;html=1;aspect=fixed;fillColor=#6a00ff;fontColor=#ffffff;strokeColor=#3700CC;fontStyle=1" vertex="1" parent="1">
          <mxGeometry x="410" y="320" width="40" height="40" as="geometry" />
        </mxCell>
        <mxCell id="MnWBI0cI_bQ1-DApejmr-33" style="edgeStyle=orthogonalEdgeStyle;curved=1;rounded=0;orthogonalLoop=1;jettySize=auto;html=1;exitX=0.5;exitY=1;exitDx=0;exitDy=0;entryX=0.5;entryY=0;entryDx=0;entryDy=0;fillColor=#6a00ff;strokeColor=#3700CC;" edge="1" source="MnWBI0cI_bQ1-DApejmr-35" target="MnWBI0cI_bQ1-DApejmr-32" parent="1">
          <mxGeometry relative="1" as="geometry">
            <Array as="points">
              <mxPoint x="440" y="270" />
              <mxPoint x="440" y="300" />
              <mxPoint x="430" y="300" />
            </Array>
          </mxGeometry>
        </mxCell>
        <mxCell id="MnWBI0cI_bQ1-DApejmr-34" style="edgeStyle=none;rounded=0;orthogonalLoop=1;jettySize=auto;html=1;exitX=1;exitY=0.5;exitDx=0;exitDy=0;entryX=0;entryY=0.5;entryDx=0;entryDy=0;fillColor=#6a00ff;strokeColor=#3700CC;" edge="1" source="MnWBI0cI_bQ1-DApejmr-35" target="MnWBI0cI_bQ1-DApejmr-38" parent="1">
          <mxGeometry relative="1" as="geometry" />
        </mxCell>
        <mxCell id="MnWBI0cI_bQ1-DApejmr-35" value="5" style="ellipse;whiteSpace=wrap;html=1;aspect=fixed;fillColor=#6a00ff;fontColor=#ffffff;strokeColor=#3700CC;fontStyle=1" vertex="1" parent="1">
          <mxGeometry x="410" y="230" width="40" height="40" as="geometry" />
        </mxCell>
        <mxCell id="MnWBI0cI_bQ1-DApejmr-36" value="7" style="ellipse;whiteSpace=wrap;html=1;aspect=fixed;fillColor=#6a00ff;fontColor=#ffffff;strokeColor=#3700CC;fontStyle=1" vertex="1" parent="1">
          <mxGeometry x="550" y="320" width="40" height="40" as="geometry" />
        </mxCell>
        <mxCell id="MnWBI0cI_bQ1-DApejmr-37" style="edgeStyle=none;rounded=0;orthogonalLoop=1;jettySize=auto;html=1;exitX=0.5;exitY=1;exitDx=0;exitDy=0;entryX=0.5;entryY=0;entryDx=0;entryDy=0;fillColor=#6a00ff;strokeColor=#3700CC;" edge="1" source="MnWBI0cI_bQ1-DApejmr-38" target="MnWBI0cI_bQ1-DApejmr-36" parent="1">
          <mxGeometry relative="1" as="geometry" />
        </mxCell>
        <mxCell id="MnWBI0cI_bQ1-DApejmr-38" value="6" style="ellipse;whiteSpace=wrap;html=1;aspect=fixed;fillColor=#6a00ff;fontColor=#ffffff;strokeColor=#3700CC;fontStyle=1" vertex="1" parent="1">
          <mxGeometry x="550" y="230" width="40" height="40" as="geometry" />
        </mxCell>
        <mxCell id="MnWBI0cI_bQ1-DApejmr-40" value="SCC 1" style="text;html=1;align=center;verticalAlign=middle;resizable=0;points=[];autosize=1;strokeColor=none;fillColor=none;fontColor=#FFFFFF;fontStyle=1" vertex="1" parent="1">
          <mxGeometry x="210" y="390" width="60" height="20" as="geometry" />
        </mxCell>
      </root>
    </mxGraphModel>
  </diagram>
</mxfile>
